<?xml version="1.0" encoding="UTF-8"?>
<svg xmlns="http://www.w3.org/2000/svg" width="64" height="64" viewBox="0 0 64 64" role="img" aria-label="FoodAdviser">
  <defs>
    <radialGradient id="bg" cx="30%" cy="25%" r="80%">
      <stop offset="0%" stop-color="#43A047"/>
      <stop offset="100%" stop-color="#1B5E20"/>
    </radialGradient>
    <linearGradient id="plate" x1="0" y1="0" x2="1" y2="1">
      <stop offset="0%" stop-color="#FFFFFF" stop-opacity="0.95"/>
      <stop offset="100%" stop-color="#E8F5E9" stop-opacity="0.95"/>
    </linearGradient>
  </defs>

  <!-- Background -->
  <circle cx="32" cy="32" r="30" fill="url(#bg)"/>

  <!-- Plate -->
  <circle cx="32" cy="34" r="18" fill="url(#plate)"/>
  <circle cx="32" cy="34" r="12" fill="#FFFFFF" fill-opacity="0.75"/>

  <!-- Fork (left) -->
  <g fill="#FFFFFF" fill-opacity="0.9">
    <rect x="18" y="17" width="3" height="22" rx="1.5"/>
    <rect x="16" y="15" width="1.4" height="10" rx="0.7"/>
    <rect x="18.3" y="15" width="1.4" height="10" rx="0.7"/>
    <rect x="20.6" y="15" width="1.4" height="10" rx="0.7"/>
  </g>

  <!-- Knife (right) -->
  <path d="M46 14c-1.7 2.2-2.6 5.2-2.6 8.8V39c0 1.1.9 2 2 2h.6c1.1 0 2-.9 2-2V14z" fill="#FFFFFF" fill-opacity="0.9"/>

  <!-- Steam -->
  <g fill="none" stroke="#FFFFFF" stroke-opacity="0.85" stroke-width="2" stroke-linecap="round">
    <path d="M28 12c2.5 3-2.5 5 0 8"/>
    <path d="M34 11c2.5 3-2.5 5 0 8"/>
    <path d="M40 12c2.5 3-2.5 5 0 8"/>
  </g>
</svg>
